<svg width="181" height="180" viewBox="0 0 181 180" fill="none" xmlns="http://www.w3.org/2000/svg">
<g opacity="0.4">
<path d="M89.1075 156.702C84.1936 156.96 79.2797 157.303 74.3658 157.42C55.2108 157.898 36.0579 156.383 17.2173 152.899C11.5236 151.839 7.58689 147.459 7.5587 141.644C7.4898 124.708 7.4898 107.776 7.5587 90.8465C7.58219 85.1346 11.284 80.8436 16.8979 79.7369C28.3921 77.5083 40.029 76.0886 51.7225 75.4881C63.9466 74.8057 76.2021 74.9138 88.4122 75.8117C97.1693 76.4439 105.889 77.5192 114.537 79.0335C116.923 79.4555 118.854 78.2269 119.234 76.1822C119.704 73.8374 118.403 72.121 115.763 71.6474C112.827 71.1221 109.881 70.6579 106.921 70.2733C105.578 70.0998 104.995 69.7575 105.014 68.163C105.113 58.0898 105.103 47.9978 105.052 37.934C104.962 19.79 93.1288 4.96157 75.5779 0.858187C74.1685 0.534606 72.7216 0.647162 71.4062 0H63.3213C62.1422 0.679989 60.7751 0.558056 59.502 0.8535C41.9605 4.95219 30.108 19.8041 30.0235 37.9293C29.9765 48.0651 29.9765 58.2008 30.0235 68.3365C30.0235 69.523 29.8215 70.0811 28.5108 70.2546C24.5694 70.7845 20.6467 71.4504 16.7241 72.0976C6.92451 73.7202 0.117444 81.0781 0.0657689 90.4291C-0.021923 107.652 -0.021923 124.877 0.0657689 142.104C0.109177 146.297 1.58218 150.351 4.24216 153.597C6.90214 156.843 10.5904 159.088 14.6993 159.962C24.8584 162.037 35.144 163.437 45.4886 164.154C60.155 165.247 74.8826 165.247 89.549 164.154C92.1845 163.966 93.8898 162.428 93.8005 160.219C93.7113 157.94 91.851 156.557 89.1075 156.702ZM37.5916 37.8965C37.6621 22.6038 47.8422 10.5281 62.8563 7.85035C78.5797 5.0366 94.7025 16.5823 97.0796 32.3722C98.0191 38.6656 97.2534 45.0106 97.5165 50.1691C97.5165 56.7345 97.4742 62.1088 97.5447 67.4971C97.5447 68.7445 97.2628 69.0681 96.0085 68.9415C84.1762 67.7399 72.2793 67.2919 60.3899 67.6003C53.3057 67.7878 46.2261 68.163 39.1842 68.9415C37.8265 69.0916 37.5446 68.7492 37.554 67.4268C37.6104 57.5833 37.5493 47.7399 37.5916 37.8965Z" fill="url(#paint0_linear_551_97)"/>
<path d="M175.554 116.789C166.313 116.32 157.078 115.767 147.837 115.321C146.428 115.255 145.723 114.875 145.216 113.445C141.899 104.155 138.451 94.912 135.073 85.6454C134.603 84.3604 133.932 83.3568 132.56 82.9488C130.281 82.2735 128.463 83.1974 127.59 85.5563C124.107 94.9729 120.643 104.397 117.198 113.83C116.855 114.768 116.503 115.237 115.399 115.283C110.837 115.462 106.281 115.752 101.719 116.01C96.6924 116.282 91.661 116.512 86.6344 116.85C83.6748 117.047 82.0447 119.096 82.6977 121.614C82.9936 122.763 83.8627 123.49 84.713 124.198C92.0134 130.436 99.2996 136.691 106.628 142.891C107.521 143.641 107.742 144.274 107.446 145.414C104.984 154.976 102.588 164.557 100.178 174.128C99.3748 177.308 99.7318 178.255 102.353 180H104.462C105.54 179.766 106.554 179.304 107.436 178.644C114.751 173.584 122.187 168.707 129.455 163.577C130.761 162.639 131.742 162.676 133.063 163.577C140.424 168.571 147.743 173.622 155.119 178.583C155.969 179.185 156.903 179.659 157.89 179.99H160.338C162.626 179.09 163.49 177.646 163.157 175.23C163.078 174.709 162.963 174.193 162.814 173.688C160.272 164.496 158.271 155.168 155.701 145.981C155.349 144.711 155.532 143.838 156.608 142.929C163.72 136.94 170.725 130.834 177.846 124.864C178.889 123.992 179.848 123.082 180.007 121.628V119.518C179.129 117.68 177.616 116.887 175.554 116.789ZM165.797 124.663C160.159 129.498 154.522 134.365 148.824 139.125C147.057 140.598 146.578 142.216 147.147 144.387C149.068 151.792 150.905 159.215 152.784 166.634C152.836 166.845 152.859 167.071 152.929 167.511L135.369 155.572C134.899 155.243 134.406 154.906 133.918 154.582C131.855 153.227 130.671 153.222 128.609 154.624C122.806 158.564 117.004 162.506 111.204 166.451C110.706 166.789 110.292 167.352 109.597 167.3C111.622 159.328 113.665 151.384 115.643 143.43C116.071 141.714 115.249 140.41 113.943 139.299C108.405 134.609 102.884 129.898 97.3782 125.164C96.9789 124.822 96.589 124.47 95.9313 123.884C98.3648 123.725 100.521 123.561 102.682 123.439C107.826 123.153 112.97 122.792 118.114 122.641C120.98 122.557 122.54 121.324 123.474 118.599C125.781 111.865 128.332 105.215 130.784 98.5323C130.906 98.2087 131.052 97.8945 131.31 97.2755C132.25 99.8173 133.11 102.096 133.95 104.39C135.736 109.262 137.582 114.12 139.264 119.035C140.076 121.413 141.551 122.482 144.037 122.599C151.454 122.946 158.867 123.401 166.271 123.809C166.468 124.334 166.032 124.456 165.797 124.658V124.663Z" fill="url(#paint1_linear_551_97)"/>
</g>
<defs>
<linearGradient id="paint0_linear_551_97" x1="59.6644" y1="0" x2="59.6644" y2="164.974" gradientUnits="userSpaceOnUse">
<stop stop-color="#ADB9C7"/>
<stop offset="1" stop-color="#3090F6"/>
</linearGradient>
<linearGradient id="paint1_linear_551_97" x1="131.281" y1="82.7334" x2="131.281" y2="180" gradientUnits="userSpaceOnUse">
<stop stop-color="#ADB9C7"/>
<stop offset="1" stop-color="#3090F6"/>
</linearGradient>
</defs>
</svg>
