<svg width="196" height="195" viewBox="0 0 196 195" fill="none" xmlns="http://www.w3.org/2000/svg">
<g opacity="0.4">
<path d="M67.3404 34.1224C68.1733 36.0484 70.0057 36.2775 71.5049 36.2723C72.8843 36.2723 74.2586 36.2723 75.6381 36.2723C77.991 36.2723 80.422 36.2723 82.8165 36.2202C83.5297 36.2202 83.7171 36.3035 83.7639 36.3452C83.8108 36.3868 83.9201 36.5846 83.9201 37.329C83.868 51.1237 83.8733 65.1475 83.8785 78.7131V86.9848C83.8785 88.4944 84.2584 89.6292 85.0028 90.3736C85.3144 90.6722 85.6827 90.9053 86.086 91.0591C86.4892 91.2129 86.9192 91.2842 87.3505 91.2689C89.5369 91.2689 90.8435 89.65 90.8435 86.9639C90.8435 69.1818 90.8435 51.3961 90.8435 33.607C90.8435 30.4837 89.5993 29.2864 86.4083 29.276C84.2532 29.276 82.0981 29.276 79.9274 29.276H78.5323L84.425 22.9721C88.874 18.2212 93.3178 13.465 97.7564 8.70368C97.8038 8.65213 97.8542 8.60346 97.9074 8.55793C97.9843 8.62667 98.0573 8.69967 98.126 8.77657C103.457 14.5027 108.803 20.1767 114.32 26.059L117.34 29.276H109.776C106.096 29.276 104.971 30.3952 104.971 34.0391C104.971 51.6269 104.971 69.2182 104.971 86.813C104.94 87.596 105.021 88.3796 105.211 89.1398C105.383 89.8491 105.792 90.4785 106.371 90.9242C106.949 91.3698 107.662 91.6053 108.391 91.5917C108.552 91.5915 108.711 91.581 108.87 91.5604C109.675 91.5085 110.433 91.1608 110.997 90.5843C111.561 90.0077 111.892 89.243 111.926 88.4371C111.973 87.9165 111.968 87.396 111.962 86.8754V76.1468C111.962 63.4296 111.962 50.2804 111.921 37.3446C111.921 36.6002 112.035 36.4076 112.082 36.3608C112.129 36.3139 112.322 36.2098 113.056 36.2306C115.632 36.2983 118.261 36.2879 120.775 36.2775H124.56C125.601 36.2775 127.714 36.2775 128.683 34.1172C129.651 31.9569 128.271 30.5982 127.381 29.656L117.34 19.0003C111.929 13.236 106.509 7.48212 101.078 1.73867C99.9584 0.551802 98.9589 0 97.9543 0C96.9131 0 95.872 0.577817 94.7372 1.80633L86.3511 10.7495C80.4515 17.0482 74.5414 23.3434 68.621 29.6352C67.5122 30.7856 66.5127 32.2171 67.3404 34.1224Z" fill="url(#paint0_linear_551_158)"/>
<path d="M179.001 75.3502L178.319 75.7354L178.991 75.3346C178.163 73.8875 177.71 73.091 177.762 72.56C177.814 72.0291 178.439 71.3003 179.564 69.9885L181.344 67.9063L185.238 63.4035C188.271 59.8984 191.302 56.3933 194.332 52.8883C195.545 51.4776 196.013 50.2855 195.8 49.1663C195.586 48.0471 194.68 47.0841 192.973 46.1835C192.905 46.1419 192.833 46.1106 192.76 46.0742L127.784 12.9565L126.332 12.2069C125.108 11.5718 123.843 10.9159 122.563 10.3225C120.741 9.46877 119.023 10.057 118.081 11.8529C117.139 13.6488 117.628 15.3042 119.304 16.413C119.658 16.6381 120.027 16.8398 120.408 17.0168L120.746 17.1886L179.996 47.5474C181.698 48.4167 183.4 49.2964 185.139 50.1918L186.778 51.0351L183.561 54.7206C180.006 58.7913 176.643 62.633 173.28 66.6257C172.442 67.62 172.042 67.7137 170.917 67.1463C159.512 61.6232 147.893 56.048 136.654 50.6603L127.898 46.4594C127.461 46.2512 127.029 46.0378 126.597 45.8191C125.467 45.2621 124.307 44.6843 123.104 44.2158C122.701 44.0273 122.264 43.923 121.82 43.9093C121.375 43.8955 120.933 43.9726 120.519 44.1359C120.105 44.2991 119.729 44.5451 119.414 44.8587C119.098 45.1722 118.85 45.5469 118.685 45.9597C117.888 47.7035 118.43 49.3849 120.132 50.4573C120.406 50.624 120.691 50.7719 120.985 50.8997L128.731 54.6113C140.704 60.3548 152.677 66.0999 164.65 71.8469C164.811 71.925 164.983 71.9926 165.17 72.0603C165.358 72.128 165.373 72.1384 165.462 72.18L164.613 72.6485L151.729 79.5875C134.551 88.8326 116.764 98.4004 99.2992 107.843C98.8887 108.126 98.4023 108.277 97.9041 108.277C97.4059 108.277 96.9195 108.126 96.509 107.843C83.3129 100.675 69.8722 93.4343 56.8739 86.4276L45.4217 80.259L34.4901 74.3455L30.4558 72.1592L62.98 56.5425L66.0305 55.0798C68.7634 53.7732 71.5848 52.425 74.3594 51.0611C76.3479 50.0773 77.0819 48.1772 76.1969 46.3345C75.312 44.4917 73.4432 43.9295 71.3818 44.7728C71.132 44.8769 70.8613 45.0018 70.6374 45.1268L70.2938 45.2986L60.9551 49.7753C48.9823 55.5014 36.6139 61.4462 24.4694 67.3285C23.6157 67.7397 23.4283 67.7085 22.8713 67.0213C19.8417 63.4503 16.7183 59.8689 13.7043 56.3968L9.88344 51.9981C9.60584 51.6934 9.34517 51.3736 9.10261 51.0403C9.33165 50.8841 9.78974 50.6499 10.2062 50.4364L74.9632 17.2146L75.364 17.0168C75.916 16.7621 76.4394 16.4498 76.9257 16.085C78.3728 14.9294 78.7424 13.3365 77.9096 11.8217C76.9882 10.1455 75.4525 9.54165 73.6827 10.1767C73.1947 10.361 72.7199 10.5784 72.2616 10.8274L72.0117 10.9576L2.88718 46.2356C1.17455 47.1101 0.284403 48.0419 0.055359 49.1611C-0.173685 50.2803 0.305218 51.4671 1.54414 52.9039L3.53266 55.2151C8.12396 60.556 12.8714 66.0739 17.5876 71.446C18.3529 72.3154 18.3945 72.6954 17.8115 73.7001C13.4128 81.2845 8.99848 89.0304 4.72993 96.5212L1.21101 102.695C0.33127 104.257 -0.18408 105.511 0.169898 106.682C0.523875 107.854 1.66389 108.692 3.29323 109.551L7.41601 111.753C10.9506 113.637 14.6049 115.589 18.228 117.479C19.0244 117.895 19.2274 118.239 19.2222 119.165C19.2222 123.699 19.2222 128.311 19.2222 132.767C19.2222 138.587 19.2222 144.6 19.1702 150.513C19.1702 153.007 20.0343 154.49 22.2102 155.641C41.9913 166.083 68.0555 179.872 94.2081 193.896C95.3503 194.574 96.6445 194.953 97.9718 195C99.2217 194.966 100.443 194.616 101.522 193.985C126.732 180.482 152.151 167.025 173.686 155.641C175.769 154.542 176.654 153.038 176.638 150.633C176.596 145.651 176.596 140.586 176.596 135.683C176.596 130.373 176.596 124.881 176.55 119.478C176.55 118.301 176.831 117.848 177.955 117.276C182.312 115.043 186.7 112.69 190.938 110.42L193.067 109.28C194.628 108.447 195.399 107.677 195.67 106.677C195.94 105.678 195.669 104.595 194.795 103.033C189.53 93.7987 184.266 84.571 179.001 75.3502ZM169.001 150.175C151.677 159.363 134.077 168.727 117.055 177.764L101.486 186.046V125.735L101.782 126.255C103.021 128.369 104.192 130.373 105.358 132.382L108.544 137.869C110.21 140.742 111.879 143.614 113.552 146.484C115.228 149.352 116.712 149.774 119.663 148.212C131.195 142.108 142.724 135.997 154.249 129.878L168.689 122.216L169.59 121.752V132.632C169.59 138.035 169.59 143.439 169.59 148.842C169.605 149.654 169.532 149.894 169.001 150.175ZM118.711 140.956L118.518 141.049C118.518 141.003 118.466 140.945 118.445 140.899C118.424 140.852 118.346 140.695 118.289 140.602L113.859 132.95C110.304 126.807 106.629 120.456 102.964 114.241C102.887 114.117 102.826 113.984 102.782 113.845C102.896 113.786 103.015 113.734 103.136 113.689C103.297 113.626 103.455 113.555 103.609 113.476C111.126 109.415 118.652 105.36 126.186 101.31C131.079 98.6763 135.971 96.0423 140.86 93.4083L144.78 91.326C153.296 86.7347 162.104 81.9925 170.735 77.271C171.724 76.7245 171.802 76.7505 172.385 77.7916C176.654 85.4125 181.297 93.5696 187.002 103.45C187.351 104.059 187.387 104.246 187.377 104.298C187.367 104.35 187.32 104.465 186.669 104.819C168.83 114.277 150.714 123.949 133.198 133.298L119.861 140.42C119.481 140.571 119.091 140.763 118.711 140.956ZM92.8339 114.543C87.9563 122.83 83.0475 131.299 77.8315 140.425C77.5556 140.904 77.4307 140.945 77.4254 140.945C77.4202 140.945 77.2849 140.945 76.8268 140.716C53.6777 128.395 30.8722 116.245 8.97768 104.626C8.78721 104.533 8.61174 104.412 8.45712 104.267C8.4949 104.056 8.58035 103.857 8.70698 103.684C12.1583 97.6768 15.6772 91.5603 19.0608 85.6312C20.626 82.8896 22.1876 80.1497 23.7458 77.4116C23.8128 77.2934 23.8736 77.1717 23.928 77.0472C23.9853 76.9223 24.0269 76.839 24.053 76.7869H24.0946C24.3601 76.9171 24.6152 77.0472 24.8963 77.193L38.4307 84.4808C56.1296 93.9965 74.4323 103.835 92.4487 113.491C92.6826 113.592 92.8961 113.735 93.0785 113.913C93.0785 113.913 93.115 114.069 92.8339 114.543ZM26.2028 127.427C26.2028 125.542 26.2028 123.642 26.2028 121.737L27.4886 122.414L32.335 124.975L75.8742 148.087C79.2995 149.909 80.606 149.545 82.5321 146.234L94.281 125.917V186.051L89.4815 183.501L75.2027 175.89L64.1201 170.008C52.0848 163.6 39.654 156.994 27.3793 150.503C26.3954 149.982 26.1299 149.524 26.1404 148.379C26.1924 141.435 26.1872 134.631 26.182 127.427H26.2028Z" fill="url(#paint1_linear_551_158)"/>
<path d="M138.528 151.903C138.054 151.604 137.512 151.428 136.951 151.391C136.391 151.355 135.831 151.459 135.322 151.695C129.236 154.355 123.083 157.135 117.134 159.831L116.233 160.237C114.385 161.075 113.703 162.767 114.411 164.766C114.554 165.172 114.78 165.543 115.075 165.856C115.37 166.169 115.727 166.416 116.124 166.583C116.562 166.774 117.035 166.871 117.514 166.869C118.039 166.868 118.559 166.756 119.039 166.541C125.098 163.886 131.235 161.133 137.17 158.467L137.961 158.113C138.62 157.85 139.18 157.387 139.564 156.79C139.947 156.193 140.135 155.491 140.1 154.782C140.094 154.21 139.948 153.648 139.674 153.146C139.4 152.644 139.006 152.217 138.528 151.903Z" fill="url(#paint2_linear_551_158)"/>
</g>
<defs>
<linearGradient id="paint0_linear_551_158" x1="69.468" y1="1.35343" x2="152.248" y2="66.0727" gradientUnits="userSpaceOnUse">
<stop stop-color="#ADB9C7"/>
<stop offset="1" stop-color="#3090F6"/>
</linearGradient>
<linearGradient id="paint1_linear_551_158" x1="7.68766" y1="12.6644" x2="176.617" y2="219.213" gradientUnits="userSpaceOnUse">
<stop stop-color="#ADB9C7"/>
<stop offset="1" stop-color="#3090F6"/>
</linearGradient>
<linearGradient id="paint2_linear_551_158" x1="115.156" y1="151.613" x2="126.911" y2="174.389" gradientUnits="userSpaceOnUse">
<stop stop-color="#ADB9C7"/>
<stop offset="1" stop-color="#3090F6"/>
</linearGradient>
</defs>
</svg>
