<svg width="186" height="185" viewBox="0 0 186 185" fill="none" xmlns="http://www.w3.org/2000/svg">
<path opacity="0.4" d="M183.99 153.656C180.81 143.519 175.567 134.405 169.833 125.542C169.491 125.11 169.274 124.593 169.206 124.047C169.137 123.502 169.22 122.948 169.444 122.445C177.655 100.959 177.099 79.6849 167.775 58.6222C167.557 58.2267 167.451 57.7793 167.47 57.3284C167.489 56.8774 167.631 56.4402 167.881 56.064C171.648 49.7682 174.903 43.1823 177.615 36.3693C180.365 29.2539 182.549 22.0175 181.978 14.2121C181.402 6.26074 176.062 0.832231 168.149 0.112122C163.478 -0.310879 158.983 0.504904 154.564 1.85448C144.492 4.9313 135.396 10.0023 126.644 15.7128C125.258 16.6192 124.146 16.8408 122.528 16.1811C115.986 13.5348 109.097 11.8389 102.071 11.1454C87.4056 9.52284 72.573 11.8878 59.1493 17.9889C58.6737 18.258 58.1322 18.3896 57.5856 18.3692C57.039 18.3487 56.509 18.1769 56.055 17.8731C49.79 14.1564 43.2346 10.9484 36.4524 8.28007C29.3131 5.52553 22.0525 3.32995 14.2458 3.92417C6.81332 4.4932 1.4892 9.39799 0.301009 16.7149C-0.543365 21.8916 0.498193 26.8367 2.06559 31.7012C5.27624 41.6971 10.5549 50.6607 16.2986 59.3675C16.6414 59.7959 16.8595 60.3099 16.929 60.8534C16.9986 61.3969 16.9169 61.9489 16.693 62.4493C8.46834 83.9351 9.00428 105.209 18.3008 126.272C18.5983 126.839 18.733 127.476 18.6902 128.114C18.6474 128.752 18.4287 129.366 18.0581 129.888C13.9592 136.644 10.5075 143.769 7.74868 151.169C5.49365 157.383 3.76444 163.708 4.1386 170.435C4.58859 178.608 9.81664 184.102 17.9924 184.888C23.5137 185.391 28.7569 184.138 33.894 182.34C43.2073 179.072 51.6966 174.197 59.9431 168.874C60.7673 168.346 61.46 167.953 62.5218 168.371C70.3543 171.507 78.6256 173.421 87.044 174.046C95.4755 174.671 103.953 174.03 112.193 172.143C117.355 171.007 122.362 169.263 127.109 166.946C127.47 166.729 127.888 166.621 128.31 166.636C128.732 166.651 129.14 166.789 129.485 167.031C134.411 169.931 139.509 172.533 144.75 174.821C152.455 178.15 160.292 181 169.171 181.267C169.965 181.212 171.097 181.166 172.204 181.061C179.693 180.356 184.951 175.159 185.8 167.731C186.357 162.877 185.426 158.234 183.99 153.656ZM160.403 8.33545C162.243 7.91028 164.127 7.70239 166.016 7.71607C171.486 7.79664 174.106 10.3145 174.343 15.7732C174.53 20.4162 173.413 24.8375 171.972 29.2085C169.671 36.183 166.486 42.7647 162.815 49.3514C155.353 37.523 145.028 27.7503 132.787 20.9298C141.711 15.4862 150.443 10.5763 160.403 8.33545ZM165.915 107.449C165.465 109.71 165.333 109.775 163.498 108.224C161.814 106.809 160.237 105.273 158.634 103.767C156.182 101.461 153.482 99.5475 150.22 98.5555C149.209 98.2533 148.704 97.4778 148.107 96.7779C146.747 95.2168 145.407 93.6305 144.011 92.0946C143.506 91.5457 143.425 91.1882 143.946 90.5436C150.452 82.4613 156.546 74.0578 162.203 65.365C163.852 69.2867 165.09 73.367 165.899 77.5414C167.916 87.4088 167.921 97.5791 165.915 107.449ZM134.324 32.1746C134.632 31.9731 134.951 31.7969 135.259 31.6106C135.628 31.8372 135.967 32.0134 136.271 32.23C145.062 38.5005 152.389 46.5896 157.749 55.9432C157.971 56.2756 158.081 56.6704 158.061 57.0693C158.04 57.4683 157.892 57.8502 157.638 58.1589C151.849 67.2753 145.584 76.0831 138.869 84.5461C138.202 85.3921 137.894 85.3317 137.196 84.6065C132.837 80.0744 128.455 75.5691 124.05 71.0906C123.509 70.5417 123.241 70.159 123.762 69.3735C126.335 65.506 126.143 61.4573 124.303 57.3784C123.709 55.9968 123.034 54.6516 122.28 53.3498C119.813 49.2658 120.617 45.4034 123.059 41.7022C124.919 38.8822 127.473 36.7319 130.254 34.8485C131.578 33.9623 132.954 33.0609 134.324 32.1746ZM132.635 92.1802C129.227 96.0477 125.84 99.9319 122.472 103.833C121.891 104.508 121.198 104.543 120.425 104.493C116.372 104.256 112.5 102.739 109.372 100.162C107.349 98.5001 106.5 96.2693 106.308 93.8571C106.376 91.8633 106.92 89.9144 107.895 88.1718C110.282 83.6749 113.821 80.1147 117.33 76.4839C117.806 75.9803 118.084 76.0609 118.523 76.4839C123.322 81.2074 128.034 86.0115 132.595 90.9566C133.014 91.4249 133.055 91.7018 132.635 92.1802ZM128.004 27.023C124.571 29.274 121.486 31.5552 118.903 34.4558C115.267 38.5297 113.058 43.1575 113.017 48.727C113.017 51.5269 113.938 53.9994 115.141 56.4316C115.894 57.9424 116.658 59.4531 117.366 60.994C117.871 62.1422 118.311 63.3457 117.436 64.7204C101.328 49.6536 84.3238 35.7499 65.5099 23.6038C86.9631 15.7682 107.577 16.8408 128.004 27.023ZM14.9789 42.1655C11.9908 36.5003 9.36664 30.689 8.15317 24.344C7.82292 22.687 7.70907 20.9944 7.81441 19.3083C8.16329 14.2222 10.7571 11.7295 15.9042 11.5583C20.9604 11.3921 25.7485 12.7165 30.4608 14.3431C37.0085 16.6041 43.2124 19.6255 49.5781 23.1304C43.7177 26.7931 38.3401 31.1712 33.5704 36.1629C28.7977 41.1759 24.6658 46.7576 21.2688 52.7807C18.9701 49.365 16.8701 45.8207 14.9789 42.1655ZM18.6649 89.894C19.1705 69.2879 28.1603 50.1823 45.9023 35.1658C47.4191 33.9069 48.2331 34.1184 49.4416 35.3874C51.2517 37.3261 52.3438 39.5569 52.1769 42.1806C51.7522 48.9435 55.0842 53.1383 60.8431 56.2806C70.4498 61.4825 76.0115 69.7461 78.2109 80.3463C78.7873 83.1512 78.5042 83.7605 75.9863 85.2612C71.8301 87.7387 67.5526 90.025 63.7099 92.991C60.0544 95.816 56.7325 98.9684 54.2196 102.876C49.9489 109.527 49.0573 116.602 51.5449 124.102C52.182 126 52.6623 127.949 53.2589 129.863C53.5674 130.87 53.2994 131.257 52.2477 131.494C47.3079 132.567 42.3428 132.265 37.3726 131.998C35.2996 131.882 33.2366 131.555 31.1586 131.454C30.7005 131.463 30.2495 131.34 29.8601 131.1C29.4707 130.86 29.1595 130.512 28.9642 130.099C22.1081 118.431 18.7306 105.872 18.6649 89.894ZM52.7483 164.277C44.1882 169.579 35.426 174.459 25.4805 176.73C22.7705 177.344 20.0199 177.621 17.2441 176.992C14.2104 176.312 12.6076 174.409 12.0919 171.453C11.2374 166.528 12.4863 161.855 13.902 157.227C16.1419 149.89 19.5345 143.056 23.4075 136.077C31.2445 147.77 40.8562 157.166 52.9657 163.884C52.8645 164.065 52.8393 164.221 52.7483 164.277ZM58.4263 158.118C50.0174 153.642 42.5248 147.636 36.336 140.412C36.1844 140.241 36.0529 140.055 35.6838 139.587C36.9226 139.667 37.8327 139.723 38.7175 139.788C45.2905 140.251 51.8078 140.035 58.1027 137.774C61.1617 136.671 62.001 135.256 61.5156 132.038C60.9709 128.571 60.1026 125.162 58.9218 121.856C56.3634 114.483 58.7398 108.486 63.8161 103.148C67.1835 99.6231 71.2234 96.9491 75.4149 94.4916C76.8761 93.6356 78.3626 92.8198 79.8087 91.9335C85.4716 88.4689 87.0541 85.1202 85.7294 78.6895C83.1204 66.0348 76.2593 56.3309 65.065 49.7291C64.524 49.4118 63.9779 49.0946 63.4167 48.8176C61.1516 47.6896 59.837 46.0883 59.9229 43.3589C60.0898 38.1973 58.5982 33.5745 54.7707 29.8934C54.3409 29.4805 54.3511 29.2136 54.8668 28.8862C56.2117 28.0856 57.2836 27.4611 59.0482 28.5841C76.7902 39.849 93.1367 52.8815 108.598 67.0721C109.822 68.2001 111.961 69.1972 111.935 70.572C111.935 71.7856 109.943 72.969 108.831 74.1574C105.514 77.6824 102.42 81.4088 100.397 85.8755C96.5698 94.3506 98.9411 102.559 106.687 107.751C109.291 109.468 112.166 110.74 115.191 111.512C114.903 111.87 114.686 112.172 114.443 112.434C98.395 128.991 81.4064 144.471 62.5673 157.871C61.0504 158.949 60.0038 158.969 58.4263 158.118ZM104.189 143.333C105.12 148.963 107.112 154.351 107.956 160.001C108.704 165.002 108.755 165.072 103.876 165.787C92.7469 167.427 81.3895 166.534 70.6571 163.174C70.303 163.054 69.9553 162.916 69.6155 162.761C69.5751 162.761 69.57 162.65 69.4992 162.454C72.6846 160.021 75.9407 157.599 79.1311 155.092C95.3108 142.341 110.272 128.236 124.323 113.189C125.093 112.288 126.146 111.672 127.311 111.442C130.345 110.883 132.873 109.146 135.517 107.756C138.161 106.366 140.725 105.268 143.728 105.268C144.159 105.231 144.592 105.301 144.988 105.473C145.385 105.644 145.732 105.911 145.999 106.25C150.62 111.966 155.125 117.767 159.357 123.779C159.604 124.049 159.755 124.392 159.788 124.756C159.821 125.12 159.734 125.484 159.539 125.794C156.191 132.333 151.91 138.355 146.828 143.671C146.352 144.174 146.009 144.652 145.109 144.224C142.029 142.764 138.708 141.953 135.396 141.284C133.373 140.871 133.545 140.135 134.299 138.73C135.34 136.802 136.351 134.853 136.781 132.688C138.04 126.353 133.328 121.362 126.937 122.41C120.188 123.466 113.857 126.339 108.629 130.719C104.614 134.042 103.345 138.287 104.189 143.333ZM120.258 161.462C118.923 161.965 117.28 163.063 116.263 162.66C115.247 162.257 115.869 160.188 115.662 158.858C114.772 153.092 112.78 147.578 111.789 141.832C111.404 139.607 111.991 137.935 113.71 136.52C117.641 133.259 122.356 131.072 127.392 130.175C129.197 129.842 129.601 130.306 128.909 132.023C128.312 133.534 127.498 134.959 126.826 136.439C124.196 142.18 126.32 146.722 132.423 148.439C134.658 149.069 136.913 149.623 139.532 150.308C133.713 154.978 127.214 158.737 120.258 161.457V161.462ZM178.09 167.162C177.529 171.191 174.859 173.311 170.258 173.512C165.525 173.724 161.025 172.565 156.606 171.15C152.725 169.898 148.935 168.384 145.26 166.618C142.318 165.223 139.431 163.703 136.25 162.086C148.119 154.8 157.923 144.614 164.731 132.496C164.873 132.496 165.06 132.496 165.101 132.552C170.445 141.067 175.284 149.814 177.625 159.699C178.238 162.136 178.396 164.664 178.09 167.157V167.162Z" fill="url(#paint0_linear_551_89)"/>
<defs>
<linearGradient id="paint0_linear_551_89" x1="92.9818" y1="0" x2="92.9818" y2="185" gradientUnits="userSpaceOnUse">
<stop stop-color="#ADB9C7"/>
<stop offset="1" stop-color="#3090F6"/>
</linearGradient>
</defs>
</svg>
