<svg width="166" height="180" viewBox="0 0 166 180" fill="none" xmlns="http://www.w3.org/2000/svg">
<g opacity="0.4">
<path d="M160.365 109.832L159.027 108.836C155.607 106.277 152.062 103.638 148.534 101.134C147.47 100.479 146.633 99.5131 146.135 98.367C145.637 97.2208 145.503 95.9496 145.751 94.7249C146.259 91.6308 146.259 88.4747 145.751 85.3806C145.513 84.1016 145.671 82.7804 146.203 81.5935C146.736 80.4066 147.618 79.4104 148.731 78.7381C152.466 76.117 156.191 73.2984 159.799 70.5696L160.499 70.04C165.957 65.9109 167.196 60.3815 163.982 54.484C160.679 48.4071 157.205 42.2224 153.372 35.5709C150.042 29.7992 144.584 28.0757 138.4 30.8494L135.77 32.0163C132.637 33.3987 129.675 34.7092 126.847 36.2801C123.086 38.3805 119.783 38.0753 116.444 35.3824C114.579 33.9976 112.561 32.8319 110.43 31.9086C109.275 31.4158 108.287 30.601 107.583 29.5615C106.88 28.522 106.491 27.3019 106.462 26.0471C106.004 20.6613 105.493 14.9164 104.667 9.21645C104.367 6.7 103.152 4.38172 101.254 2.70322C99.3548 1.02471 96.9051 0.103278 94.3709 0.114448C86.6871 -0.0381494 78.9316 -0.0381494 71.3287 0.114448C68.7955 0.112629 66.35 1.0415 64.4568 2.72453C62.5636 4.40756 61.3547 6.72746 61.0597 9.24337C60.3574 13.7953 59.9168 18.3837 59.7402 22.9861C59.5607 28.2911 57.2538 31.6932 52.6938 33.3807C51.0525 34.0584 49.5357 35.0049 48.2056 36.1813C45.055 38.7934 42.1825 37.8689 40.2975 36.9443C35.6567 34.6643 31.0968 32.5549 26.7612 30.6609C21.2318 28.2463 15.7293 29.9877 12.7312 35.0862C8.98808 41.4594 5.20905 48.2096 1.50183 55.1303C-1.33469 60.4264 -0.0959558 66.0096 4.73331 69.6989L6.85172 71.3416C9.28819 73.3154 11.8324 75.1524 14.4726 76.8441C17.4258 78.6393 21.1959 81.8349 19.7866 88.2709C19.5433 90.1531 19.6009 92.062 19.9572 93.926L20.029 94.5544C20.263 95.8709 20.0953 97.2274 19.5478 98.4473C19.0003 99.6672 18.0982 100.694 16.9591 101.394C12.8838 104.249 8.9432 107.229 4.92181 110.29C-0.212649 114.204 -1.36162 119.697 1.68135 125.361C5.14622 131.743 8.76367 138.197 12.4529 144.561C15.7113 150.19 21.2138 151.967 27.1651 149.31C30.8903 147.649 35.1092 145.773 39.1037 143.7C41.5093 142.443 45.1627 141.168 49.1302 144.49C50.6745 145.666 52.3419 146.671 54.1031 147.488L55.4765 148.206C56.567 148.675 57.5037 149.442 58.1798 150.418C58.8558 151.394 59.2441 152.54 59.3004 153.726C59.4081 155.45 59.6056 157.164 59.83 158.977C60.1083 161.32 60.3955 163.735 60.4493 166.158C60.6199 173.492 63.3667 177.783 69.3359 180H96.4534C102.459 177.765 105.196 173.474 105.322 166.176C105.322 164.48 105.546 162.837 105.726 161.257C105.932 159.793 106.055 158.319 106.094 156.841C106.148 151.805 108.482 148.385 113.024 146.689C114.67 145.973 116.2 145.017 117.566 143.852C120.86 141.24 123.849 142.237 125.725 143.215C129.702 145.244 133.75 147.093 138.606 149.256C144.566 151.949 150.078 150.154 153.327 144.526C156.702 138.7 160.176 132.515 163.955 125.621C167.232 119.616 165.966 114.006 160.365 109.832ZM156.137 123.297C153.489 127.785 150.751 132.874 147.717 138.727C145.626 142.757 142.52 142.317 140.285 141.195C137.682 139.921 134.989 138.691 132.377 137.506C129.495 136.187 126.515 134.813 123.607 133.386C121.022 132.093 119.28 132.291 117.189 134.095C112.956 137.809 108.092 140.734 102.827 142.73C100.197 143.709 99.0924 145.289 98.886 148.376C98.6885 151.276 98.4371 154.202 98.1948 157.03C97.9255 160.117 97.6562 163.313 97.4587 166.419C97.1625 171.033 94.2362 172.047 91.7318 172.047H91.4895C86.1037 171.912 80.5833 171.912 74.5153 172.047C71.0145 172.146 68.914 170.252 68.6178 166.787C68.4293 164.534 68.2049 162.236 67.9715 160.01C67.6125 156.419 67.2355 152.694 67.02 148.996C66.8046 145.298 65.5659 143.61 62.4062 142.452C57.4089 140.611 52.8041 137.842 48.834 134.293C46.5809 132.345 44.6151 132.129 41.8414 133.548C39.2383 134.876 36.5723 136.124 33.9871 137.327C31.402 138.529 28.736 139.786 26.1867 141.097C22.7219 142.892 20.0469 141.994 18.2068 138.493C15.2625 132.856 12.0759 127.318 9.63438 123.117C7.83911 120.065 8.40462 117.498 11.2591 115.478C13.5481 113.88 15.837 112.157 18.0452 110.496C20.5855 108.584 23.2066 106.619 25.8905 104.76C28.368 103.046 29.131 101.278 28.5834 98.477C27.5198 92.9112 27.5198 87.1943 28.5834 81.6285C29.113 78.8637 28.4039 77.0775 26.1418 75.4617C23.5208 73.5947 20.9176 71.6378 18.4132 69.7348C16.0884 67.9934 13.7007 66.1443 11.313 64.4747C8.45848 62.4191 7.88399 59.8609 9.59847 56.8628C12.3901 51.9797 15.1907 46.8272 18.1709 41.0914C19.7687 38.0304 22.2551 37.2226 25.3519 38.7485C28.0448 40.0591 30.8006 41.3337 33.4845 42.5725C36.3748 43.9189 39.3729 45.2654 42.2992 46.7465C44.7408 47.9493 46.4642 47.7518 48.4749 46.0373C52.8141 42.2842 57.7704 39.311 63.1243 37.2495C65.6197 36.307 66.7148 34.781 66.8854 31.8099C67.0559 28.8387 67.3342 26.074 67.5676 23.2823C67.8458 20.0509 68.1331 16.7117 68.3395 13.4084C68.6358 8.92023 71.6339 7.96874 74.1203 8.02259C80.4037 8.14826 85.9421 8.14826 91.0855 8.02259C95.7981 7.91488 96.992 10.886 97.1805 13.4084C97.369 15.9307 97.6472 18.6775 97.9076 21.2537C98.2307 24.4852 98.5628 27.8333 98.8052 31.1277C99.0206 34.6464 100.223 36.3519 103.231 37.4111C108.41 39.3714 113.187 42.2647 117.323 45.9476C119.334 47.662 121.057 47.8595 123.463 46.6567C128.373 44.1972 133.418 41.8364 138.292 39.5564L140.087 38.6588C140.165 38.6223 140.24 38.5803 140.312 38.5331C140.844 38.1532 141.453 37.8963 142.097 37.7812C142.74 37.666 143.401 37.6954 144.032 37.8673C144.663 38.0391 145.247 38.3491 145.743 38.7748C146.239 39.2004 146.635 39.7311 146.9 40.3284C149.1 44.4395 151.433 48.5866 153.686 52.599L156.469 57.5539C156.613 57.8143 156.738 58.0836 156.873 58.3708L157.331 59.3223V60.0853C157.292 61.0011 157.008 61.8896 156.507 62.6573C156.006 63.425 155.308 64.0435 154.485 64.4478C154.386 64.5054 154.29 64.5683 154.198 64.6363L153.166 65.4082C148.74 68.7384 144.189 72.1854 139.549 75.4348C138.556 76.0034 137.78 76.8864 137.345 77.9445C136.909 79.0025 136.838 80.1755 137.143 81.2784C138.216 87.0576 138.216 92.985 137.143 98.7643C136.868 99.8234 136.947 100.943 137.368 101.953C137.79 102.963 138.53 103.807 139.477 104.356C142.233 106.322 144.961 108.378 147.6 110.371C149.791 112.022 152.089 113.728 154.306 115.361C157.295 117.624 157.914 120.272 156.137 123.314V123.297Z" fill="url(#paint0_linear_551_100)"/>
<path d="M82.6861 57.3384C78.3931 57.3724 74.1489 58.2526 70.1964 59.9286C66.2439 61.6046 62.6606 64.0436 59.6517 67.1059C56.6428 70.1682 54.2672 73.7937 52.6609 77.7751C51.0546 81.7564 50.2491 86.0154 50.2906 90.3084C50.3612 98.9082 53.815 107.134 59.9045 113.207C65.9941 119.28 74.2298 122.711 82.8298 122.758H82.9285C91.5989 122.726 99.9014 119.251 106.01 113.097C112.118 106.943 115.531 98.6153 115.499 89.9449C115.467 81.2745 111.992 72.972 105.838 66.8638C99.6846 60.7556 91.3565 57.3421 82.6861 57.3743V57.3384ZM100.361 107.363C98.0687 109.656 95.3446 111.472 92.3461 112.704C89.3477 113.937 86.1345 114.562 82.8926 114.544C79.6603 114.531 76.4624 113.881 73.4814 112.631C70.5004 111.382 67.7947 109.558 65.5188 107.262C63.2428 104.967 61.4412 102.246 60.2168 99.2551C58.9924 96.2637 58.3692 93.0604 58.3827 89.8282C58.3963 86.5959 59.0463 83.398 60.2958 80.417C61.5452 77.436 63.3696 74.7303 65.6647 72.4543C70.2999 67.8579 76.5713 65.291 83.0991 65.3183C89.5718 65.4142 95.7504 68.0378 100.314 72.6287C104.878 77.2195 107.466 83.4133 107.524 89.8865C107.549 93.1292 106.929 96.3446 105.699 99.3451C104.469 102.346 102.655 105.071 100.361 107.363Z" fill="url(#paint1_linear_551_100)"/>
</g>
<defs>
<linearGradient id="paint0_linear_551_100" x1="82.8689" y1="0" x2="82.8689" y2="180" gradientUnits="userSpaceOnUse">
<stop stop-color="#ADB9C7"/>
<stop offset="1" stop-color="#3090F6"/>
</linearGradient>
<linearGradient id="paint1_linear_551_100" x1="82.8942" y1="57.3384" x2="82.8942" y2="122.758" gradientUnits="userSpaceOnUse">
<stop stop-color="#ADB9C7"/>
<stop offset="1" stop-color="#3090F6"/>
</linearGradient>
</defs>
</svg>
