<svg width="164" height="199" viewBox="0 0 164 199" fill="none" xmlns="http://www.w3.org/2000/svg">
<g opacity="0.4">
<path d="M89.7883 18.3201L99.7183 8.77011C102.158 6.42011 102.398 3.48011 100.398 1.44011C98.3983 -0.599888 95.5683 -0.449888 93.2283 1.79011C86.5483 8.16345 79.905 14.5734 73.2983 21.0201C70.8283 23.4001 70.7483 26.0201 73.1083 28.5201C79.4683 35.1868 85.8616 41.8301 92.2883 48.4501C94.5583 50.8001 97.4283 50.9501 99.5083 49.0101C101.588 47.0701 101.508 44.1401 99.1683 41.6501C95.3983 37.6501 91.5783 33.7601 87.7783 29.8201L85.9483 27.9101C90.9177 28.0688 95.8484 28.8414 100.628 30.2101C149.348 43.4101 169.628 102.21 139.338 142.54C131.579 152.989 121.102 161.11 109.048 166.02C105.608 167.43 104.268 169.56 105.048 172.27C105.858 175.18 108.728 176.42 111.898 175.19C119.288 172.33 126.179 168.32 132.318 163.31C150.208 148.65 160.578 129.8 162.648 106.73C164.72 86.6022 158.95 66.4507 146.538 50.4701C132.538 32.0301 113.828 21.4701 90.8583 18.5201C90.6283 18.4901 90.4183 18.4401 89.7883 18.3201Z" fill="url(#paint0_linear_573_3)"/>
<path d="M73.0381 181.02C69.6281 184.3 66.1381 187.55 62.7581 190.91C62.3282 191.346 61.9884 191.863 61.7581 192.43C61.5165 193.003 61.3875 193.618 61.3781 194.24C61.3776 194.861 61.5 195.476 61.7381 196.05C61.9681 196.618 62.308 197.134 62.7381 197.57C63.5979 198.425 64.7478 198.925 65.9593 198.972C67.1709 199.018 68.3556 198.607 69.2781 197.82C69.5681 197.59 69.8181 197.3 70.0881 197.05L89.5381 178.33C92.3781 175.59 92.4581 173.19 89.7681 170.33C83.4948 163.783 77.2048 157.247 70.8981 150.72C68.4481 148.18 65.7481 147.97 63.6181 150.04C61.4881 152.11 61.6181 154.88 64.0081 157.38L77.2081 171.18C71.9669 171.01 66.77 170.16 61.7481 168.65C50.724 165.509 40.6103 159.778 32.2498 151.936C23.8893 144.093 17.5242 134.367 13.6849 123.566C9.84552 112.765 8.64313 101.203 10.1779 89.843C11.7127 78.4833 15.9402 67.6548 22.5081 58.2601C30.144 47.2016 40.8016 38.5748 53.2081 33.4101L54.0281 33.0401C57.7081 31.5001 59.1381 29.0401 57.9581 26.2001C56.7781 23.3601 54.0481 22.6501 50.3181 24.2001C2.64814 43.9601 -14.9919 103.2 14.3181 145.45C28.2081 165.45 47.3981 177.05 71.5381 180.45C71.9881 180.48 72.5681 180.33 73.0381 181.02Z" fill="url(#paint1_linear_573_3)"/>
</g>
<defs>
<linearGradient id="paint0_linear_573_3" x1="146.978" y1="49.8401" x2="63.5983" y2="130.09" gradientUnits="userSpaceOnUse">
<stop stop-color="#ADB9C7"/>
<stop offset="1" stop-color="#3090F6"/>
</linearGradient>
<linearGradient id="paint1_linear_573_3" x1="99.5081" y1="68.9001" x2="16.0981" y2="149.17" gradientUnits="userSpaceOnUse">
<stop stop-color="#ADB9C7"/>
<stop offset="1" stop-color="#3090F6"/>
</linearGradient>
</defs>
</svg>
