<svg width="64" height="27" viewBox="0 0 64 27" fill="none" xmlns="http://www.w3.org/2000/svg">
<path d="M13.8384 26.4994C11.2227 26.4994 8.86851 25.9524 6.77591 24.8586C4.70709 23.7409 3.07819 22.1953 1.88921 20.2216C0.700237 18.2479 0.105748 16.0126 0.105748 13.5157C0.105748 11.0189 0.700237 8.78362 1.88921 6.80991C3.07819 4.83621 4.70709 3.30243 6.77591 2.20857C8.86851 1.09094 11.2227 0.532118 13.8384 0.532118C16.1213 0.532118 18.1782 0.936371 20.0092 1.74488C21.8402 2.55338 23.3621 3.71858 24.5749 5.24047L20.0806 9.30677C18.4635 7.35685 16.5017 6.38188 14.1951 6.38188C12.8397 6.38188 11.6269 6.67913 10.5569 7.27362C9.51055 7.86811 8.69016 8.71228 8.09567 9.80614C7.52496 10.8762 7.23961 12.1128 7.23961 13.5157C7.23961 14.9187 7.52496 16.1672 8.09567 17.261C8.69016 18.3311 9.51055 19.1634 10.5569 19.7579C11.6269 20.3524 12.8397 20.6496 14.1951 20.6496C16.5017 20.6496 18.4635 19.6746 20.0806 17.7247L24.5749 21.791C23.3621 23.3129 21.8402 24.4781 20.0092 25.2866C18.1782 26.0951 16.1213 26.4994 13.8384 26.4994ZM28.3071 13.2304H38.7225V18.4381H28.3071V13.2304ZM52.7653 10.1272C56.2609 10.1272 58.841 10.8405 60.5056 12.2673C62.1939 13.6941 63.0381 15.5965 63.0381 17.9744C63.0381 19.5201 62.6338 20.9468 61.8253 22.2547C61.0406 23.5388 59.8279 24.5732 58.1871 25.358C56.5701 26.1189 54.5607 26.4994 52.159 26.4994C50.3993 26.4994 48.6515 26.2854 46.9156 25.8573C45.2034 25.4293 43.7291 24.8229 42.4926 24.0382L45.0251 18.7235C46.0238 19.3893 47.1177 19.9005 48.3067 20.2572C49.5194 20.6139 50.7322 20.7923 51.9449 20.7923C53.1577 20.7923 54.1208 20.5664 54.8342 20.1146C55.5713 19.639 55.9399 18.985 55.9399 18.1528C55.9399 17.3205 55.5832 16.6903 54.8698 16.2623C54.1564 15.8342 52.8961 15.6202 51.0889 15.6202H44.3117L45.5601 1.03149H61.4686V6.48889H51.4099L51.0889 10.1272H52.7653Z" fill="url(#paint0_linear_1451_15)"/>
<defs>
<linearGradient id="paint0_linear_1451_15" x1="15" y1="1" x2="78.5" y2="68" gradientUnits="userSpaceOnUse">
<stop stop-color="#133A62"/>
<stop offset="1" stop-color="#3090F6"/>
</linearGradient>
</defs>
</svg>
