<svg width="184" height="155" viewBox="0 0 184 155" fill="none" xmlns="http://www.w3.org/2000/svg">
<path d="M92.6213 150.877C133.007 150.877 165.746 118.327 165.746 78.174C165.746 38.0211 133.007 5.4707 92.6213 5.4707C52.2354 5.4707 19.4962 38.0211 19.4962 78.174C19.4962 118.327 52.2354 150.877 92.6213 150.877Z" fill="#0090F8"/>
<path d="M138.992 144.217H110.723C110.285 144.217 109.926 143.861 109.926 143.425V133.474C109.926 133.038 110.285 132.682 110.723 132.682H138.992C139.431 132.682 139.79 133.038 139.79 133.474V143.425C139.79 143.861 139.431 144.217 138.992 144.217Z" fill="#292D33"/>
<path d="M121.011 140.412H114.712C112.997 140.412 111.602 139.024 111.602 137.32C111.602 135.615 112.997 134.228 114.712 134.228H121.011C122.726 134.228 124.121 135.615 124.121 137.32C124.121 139.024 122.726 140.412 121.011 140.412Z" fill="white"/>
<path d="M134.886 140.412H128.587C126.872 140.412 125.477 139.024 125.477 137.32C125.477 135.615 126.872 134.228 128.587 134.228H134.886C136.601 134.228 137.996 135.615 137.996 137.32C137.956 139.024 136.561 140.412 134.886 140.412Z" fill="white"/>
<path d="M138.354 140.412C135.762 140.412 128.306 140.412 125.316 140.412C125.316 140.412 124.837 140.412 124.04 140.412C121.049 140.412 113.593 140.412 111.002 140.412C107.852 142.315 108.29 145.288 108.29 145.288H124H125.276H140.985C141.065 145.288 141.504 142.315 138.354 140.412Z" fill="#6A88C1"/>
<path d="M136.56 139.381C134.287 139.381 127.828 139.381 125.236 139.381C125.236 139.381 124.838 139.381 124.12 139.381C121.528 139.381 115.069 139.381 112.796 139.381C110.045 139.936 110.444 140.808 110.444 140.808H124.12H125.236H138.913C138.873 140.808 139.311 139.936 136.56 139.381Z" fill="#334F80"/>
<path d="M141.704 144.614H107.773V148.222H141.704V144.614Z" fill="#292D33"/>
<path d="M109.328 148.182H108.371V149.767H109.328V148.182Z" fill="#1E2126"/>
<path d="M141.068 148.182H140.111V149.767H141.068V148.182Z" fill="#1E2126"/>
<path d="M139.153 132.682C139.472 132.682 139.751 132.959 139.751 133.276V141.561C140.748 142.671 140.987 143.861 141.027 144.614H141.665V148.221H141.027V149.807H140.07V148.221H109.329V149.807H108.372V148.221H107.734V144.614H108.292C108.332 143.821 108.611 142.473 109.887 141.284V133.276C109.887 132.959 110.166 132.682 110.485 132.682H139.153ZM139.153 131.889H110.525C109.728 131.889 109.13 132.523 109.13 133.276V140.927C108.213 141.918 107.814 142.988 107.654 143.781C107.296 143.861 106.977 144.178 106.977 144.574V148.182C106.977 148.578 107.256 148.895 107.615 148.974V149.807C107.615 150.243 107.973 150.6 108.412 150.6H109.369C109.807 150.6 110.166 150.243 110.166 149.807V149.014H139.313V149.807C139.313 150.243 139.672 150.6 140.11 150.6H141.067C141.506 150.6 141.864 150.243 141.864 149.807V148.974C142.223 148.895 142.502 148.578 142.502 148.182V144.574C142.502 144.178 142.183 143.821 141.785 143.781C141.625 143.028 141.306 142.116 140.589 141.244V133.236C140.589 132.483 139.951 131.889 139.153 131.889Z" fill="white"/>
<path d="M25.9777 72.3461C25.9777 72.3461 28.689 71.7119 26.9745 70.4037C25.26 69.0955 28.051 67.7873 26.815 66.9152C25.6188 66.0431 24.7815 68.6594 23.1866 68.1044C21.5918 67.5495 22.2696 63.7438 20.4355 63.6645C18.6413 63.5853 17.6843 66.7566 16.3287 66.8359C14.9332 66.9152 15.0129 64.497 13.6971 64.8142C12.3814 65.0917 13.5775 67.9855 11.1852 68.0648C8.79289 68.1441 9.31122 69.6108 10.7865 70.0073C11.9428 70.2848 9.70994 72.029 10.5074 72.3858H25.9777V72.3461Z" fill="#FFB000"/>
<path d="M25.4608 72.3466C25.4608 72.3466 29.2486 71.2366 29.448 69.2942C29.6473 67.3517 27.0557 69.2942 26.019 67.431C24.9823 65.5678 25.3412 63.4668 23.3077 63.4272C21.2742 63.3875 21.9919 66.321 20.4768 65.6867C18.9218 65.0525 17.5661 63.3875 15.8516 63.9029C14.1372 64.3786 15.134 66.7571 13.8581 67.3914C12.5822 68.0653 11.5455 66.3607 9.99048 66.9156C8.3956 67.4706 9.99048 68.7392 9.31266 69.5717C8.63483 70.4041 8.3956 70.087 7.67791 71.197C6.96021 72.307 10.3493 72.3069 10.3493 72.3069H25.4608V72.3466Z" fill="#FFAB00"/>
<path d="M74.5007 19.1865H29.0468V51.4551H74.5007V19.1865Z" fill="#B3C5DF"/>
<g opacity="0.25">
<path d="M65.4492 58.5781H62.6556V55.0263H60.5005V58.5781H57.6937V49.4525H60.4872V52.8181H62.6423V49.4525H65.4492V58.5781ZM62.0836 65.3461C62.8108 65.3461 63.4759 65.5279 64.079 65.8915C64.6909 66.2462 65.1742 66.7295 65.529 67.3415C65.8926 67.9445 66.0744 68.6096 66.0744 69.3369V70.7203C66.0744 71.4476 65.8926 72.1171 65.529 72.729C65.1742 73.3321 64.6909 73.8154 64.079 74.179C63.4759 74.5338 62.8108 74.7112 62.0836 74.7112H61.3386C60.6114 74.7112 59.9418 74.5338 59.3299 74.179C58.7269 73.8154 58.2435 73.3321 57.8799 72.729C57.5252 72.1171 57.3478 71.4476 57.3478 70.7203V69.3369C57.3478 68.6096 57.5252 67.9445 57.8799 67.3415C58.2435 66.7295 58.7269 66.2462 59.3299 65.8915C59.9418 65.5279 60.6114 65.3461 61.3386 65.3461H62.0836ZM61.6845 67.3947C61.312 67.3947 60.9972 67.5233 60.74 67.7804C60.4828 68.0376 60.3542 68.3525 60.3542 68.7249V71.2924C60.3542 71.6648 60.4828 71.9797 60.74 72.2368C60.9972 72.494 61.312 72.6226 61.6845 72.6226H61.751C62.1235 72.6226 62.4383 72.494 62.6955 72.2368C62.9527 71.9797 63.0813 71.6648 63.0813 71.2924V68.7249C63.0813 68.3525 62.9527 68.0376 62.6955 67.7804C62.4383 67.5233 62.1235 67.3947 61.751 67.3947H61.6845ZM64.5313 83.6474H62.2166V90.5781H59.4496V83.6474H57.135V81.4525H64.5313V83.6474ZM72.0731 83.5543H68.2286V84.8846H71.9267V86.9199H68.2286V88.3965H72.0731L72.3391 90.5781H65.4882V81.4525H72.3391L72.0731 83.5543ZM60.5139 104.343H63.8262L64.0923 106.578H57.6937V97.4525H60.5139V104.343Z" fill="black"/>
</g>
<path d="M64.7421 58.5781H61.9486V55.0263H59.7935V58.5781H56.9866V49.4525H59.7802V52.8181H61.9353V49.4525H64.7421V58.5781ZM61.3765 65.3461C62.1038 65.3461 62.7689 65.5279 63.3719 65.8915C63.9839 66.2462 64.4672 66.7295 64.8219 67.3415C65.1855 67.9445 65.3673 68.6096 65.3673 69.3369V70.7203C65.3673 71.4476 65.1855 72.1171 64.8219 72.729C64.4672 73.3321 63.9839 73.8154 63.3719 74.179C62.7689 74.5338 62.1038 74.7112 61.3765 74.7112H60.6316C59.9044 74.7112 59.2348 74.5338 58.6229 74.179C58.0198 73.8154 57.5365 73.3321 57.1729 72.729C56.8181 72.1171 56.6408 71.4476 56.6408 70.7203V69.3369C56.6408 68.6096 56.8181 67.9445 57.1729 67.3415C57.5365 66.7295 58.0198 66.2462 58.6229 65.8915C59.2348 65.5279 59.9044 65.3461 60.6316 65.3461H61.3765ZM60.9775 67.3947C60.605 67.3947 60.2902 67.5233 60.033 67.7804C59.7758 68.0376 59.6472 68.3525 59.6472 68.7249V71.2924C59.6472 71.6648 59.7758 71.9797 60.033 72.2368C60.2902 72.494 60.605 72.6226 60.9775 72.6226H61.044C61.4164 72.6226 61.7313 72.494 61.9885 72.2368C62.2456 71.9797 62.3742 71.6648 62.3742 71.2924V68.7249C62.3742 68.3525 62.2456 68.0376 61.9885 67.7804C61.7313 67.5233 61.4164 67.3947 61.044 67.3947H60.9775ZM63.8242 83.6474H61.5096V90.5781H58.7426V83.6474H56.4279V81.4525H63.8242V83.6474ZM71.366 83.5543H67.5216V84.8846H71.2197V86.9199H67.5216V88.3965H71.366L71.6321 90.5781H64.7812V81.4525H71.6321L71.366 83.5543ZM59.8068 104.343H63.1192L63.3852 106.578H56.9866V97.4525H59.8068V104.343Z" fill="white"/>
<path d="M51.7748 18.6309H28.6093V20.1769H51.7748H74.9404V18.6309H51.7748Z" fill="#292D33"/>
<path d="M51.7741 17.4023H27.9706V18.6312H51.7741H75.5776V17.4023H51.7741Z" fill="#22262B"/>
<path d="M76.3732 22.7148H61.0624V31.5154H76.3732V22.7148Z" fill="#93CAFF" stroke="#292D33" stroke-width="1.5" stroke-miterlimit="10"/>
<g opacity="0.8">
<path d="M63.7742 31.119H61.9003L72.7454 23.1113H74.5795L63.7742 31.119Z" fill="white"/>
</g>
<path d="M37.2594 22.7148H30.9198V31.5154H37.2594V22.7148Z" fill="#93CAFF" stroke="#292D33" stroke-width="1.5" stroke-miterlimit="10"/>
<g opacity="0.8">
<path d="M36.8616 25.4498L31.3593 29.5329V28.1454L36.8217 24.1416L36.8616 25.4498Z" fill="white"/>
</g>
<path d="M47.5858 22.7148H41.2462V31.5154H47.5858V22.7148Z" fill="#93CAFF" stroke="#292D33" stroke-width="1.5" stroke-miterlimit="10"/>
<g opacity="0.8">
<path d="M47.188 25.4498L41.6857 29.5329V28.1454L47.1481 24.1416L47.188 25.4498Z" fill="white"/>
</g>
<path d="M57.5152 22.7148H51.1755V31.5154H57.5152V22.7148Z" fill="#93CAFF" stroke="#292D33" stroke-width="1.5" stroke-miterlimit="10"/>
<g opacity="0.8">
<path d="M57.0763 25.4498L51.574 29.5329V28.1454L57.0763 24.1416V25.4498Z" fill="white"/>
</g>
<path d="M43.6798 35.123H28.369V43.9236H43.6798V35.123Z" fill="#93CAFF" stroke="#292D33" stroke-width="1.5" stroke-miterlimit="10"/>
<g opacity="0.8">
<path d="M30.9604 43.5272H29.0465L39.9315 35.5195H41.7258L30.9604 43.5272Z" fill="white"/>
</g>
<path d="M52.7301 35.123H46.3905V43.9236H52.7301V35.123Z" fill="#93CAFF" stroke="#292D33" stroke-width="1.5" stroke-miterlimit="10"/>
<g opacity="0.8">
<path d="M52.2913 37.858L46.7889 41.9411V40.5536L52.2913 36.5498V37.858Z" fill="white"/>
</g>
<path d="M63.0583 35.123H56.7186V43.9236H63.0583V35.123Z" fill="#93CAFF" stroke="#292D33" stroke-width="1.5" stroke-miterlimit="10"/>
<g opacity="0.8">
<path d="M62.6194 37.858L57.1171 41.9411V40.5536L62.6194 36.5498V37.858Z" fill="white"/>
</g>
<path d="M72.945 35.123H66.6053V43.9236H72.945V35.123Z" fill="#93CAFF" stroke="#292D33" stroke-width="1.5" stroke-miterlimit="10"/>
<g opacity="0.8">
<path d="M72.5471 37.858L67.0448 41.9411V40.5536L72.5073 36.5498L72.5471 37.858Z" fill="white"/>
</g>
<path d="M51.7744 50.9395H24.7811V54.5469V72.3461H29.0474V54.5469H51.7744H74.5014V72.3461H78.7677V54.5469V50.9395H51.7744Z" fill="#292D33"/>
<path d="M74.5007 54.5469H29.0468V72.3857H74.5007V54.5469Z" fill="#93CAFF"/>
<path d="M54.8836 60.8496H54.1659V66.0031H54.8836V60.8496Z" fill="#292D33"/>
<path d="M52.1336 60.8496H51.4159V66.0031H52.1336V60.8496Z" fill="#292D33"/>
<mask id="mask0_1754_16" style="mask-type:luminance" maskUnits="userSpaceOnUse" x="29" y="54" width="46" height="19">
<path d="M74.5007 54.5469H29.0468V72.3857H74.5007V54.5469Z" fill="white"/>
</mask>
<g mask="url(#mask0_1754_16)">
<path d="M75.415 56.4027L52.9178 72.8955L53.6278 73.8527L76.1249 57.36L75.415 56.4027Z" fill="white"/>
</g>
<mask id="mask1_1754_16" style="mask-type:luminance" maskUnits="userSpaceOnUse" x="29" y="54" width="46" height="19">
<path d="M74.5007 54.5469H29.0468V72.3857H74.5007V54.5469Z" fill="white"/>
</mask>
<g mask="url(#mask1_1754_16)">
<path d="M54.9086 53.0178L27.8221 72.875L28.5321 73.8322L55.6185 53.975L54.9086 53.0178Z" fill="white"/>
</g>
<path d="M53.0487 54.5469V72.3461" stroke="#292D33" stroke-width="0.1475" stroke-miterlimit="10"/>
<path d="M51.2167 72.3457H50.8579H7.63672V72.9007H50.8579H51.2167H94.4379V72.3457H51.2167Z" fill="#B3C5DF"/>
<path d="M78.7684 65.092C79.0076 64.8938 79.3266 64.7749 79.8051 64.7749C81.679 64.7352 81.0012 67.2327 82.4366 66.6777C83.872 66.1624 85.108 64.7352 86.7029 65.1317C88.2978 65.5677 87.3408 67.5498 88.537 68.1048C89.7332 68.6598 90.6901 67.2327 92.1255 67.7084C93.5609 68.1841 92.1255 69.2544 92.7236 69.968C93.3216 70.6815 93.5609 70.404 94.2387 71.3554C94.9165 72.3069 91.7666 72.3069 91.7666 72.3069H78.7285L78.7684 65.092Z" fill="#FFB000"/>
<path d="M76.8151 72.3461C76.8151 72.3461 74.1038 71.7119 75.8183 70.4037C77.5328 69.0955 74.7418 67.7873 75.9778 66.9152C77.174 66.0431 78.0113 68.6594 79.6062 68.1044C81.201 67.5495 80.5232 63.7438 82.3573 63.6645C84.1515 63.5853 85.1085 66.7566 86.4641 66.8359C87.8596 66.9152 87.7799 64.497 89.0957 64.8142C90.4114 65.0917 89.2153 67.9855 91.6076 68.0648C93.9999 68.1441 93.4816 69.6108 92.0063 70.0073C90.85 70.2848 93.0829 72.029 92.2854 72.3858H76.8151V72.3461Z" fill="#FFC259"/>
<path d="M21.2125 138.191L53.3094 127.488L38.4771 83.6045L13.6369 91.8897L9.01172 102.197L21.2125 138.191Z" fill="white" stroke="#578ACE" stroke-miterlimit="10" stroke-linecap="round" stroke-linejoin="round"/>
<path d="M13.6369 91.8896L16.3083 99.7784L9.01172 102.197L13.6369 91.8896Z" fill="#578ACE"/>
<path opacity="0.3" d="M13.6369 91.8896L16.3083 99.7784L9.01172 102.197L17.4247 100.452L13.6369 91.8896Z" fill="#8CB5C7"/>
<path opacity="0.5" d="M39.5726 95.638L30.8789 98.541L31.3232 99.8563L40.0169 96.9533L39.5726 95.638Z" fill="#C1C1C1"/>
<path opacity="0.5" d="M40.2835 97.7449L25.8066 102.579L26.0225 103.218L40.4993 98.3837L40.2835 97.7449Z" fill="#C1C1C1"/>
<path opacity="0.5" d="M48.6644 122.724L34.1875 127.559L34.4033 128.197L48.8802 123.363L48.6644 122.724Z" fill="#C1C1C1"/>
<path opacity="0.5" d="M49.105 123.85L40.828 126.615L41.0439 127.254L49.3209 124.489L49.105 123.85Z" fill="#C1C1C1"/>
<path opacity="0.5" d="M41.9622 102.85L16.1836 111.458L16.5771 112.623L42.3558 104.015L41.9622 102.85Z" fill="#C1C1C1"/>
<path opacity="0.5" d="M42.7591 105.187L16.9805 113.795L17.374 114.96L43.1526 106.352L42.7591 105.187Z" fill="#C1C1C1"/>
<path opacity="0.5" d="M43.554 107.525L17.7754 116.133L18.1689 117.298L43.9476 108.69L43.554 107.525Z" fill="#C1C1C1"/>
<path opacity="0.5" d="M44.3501 109.887L18.5742 118.495L18.9678 119.66L44.7437 111.052L44.3501 109.887Z" fill="#C1C1C1"/>
<path opacity="0.5" d="M45.1575 112.237L19.3789 120.845L19.7725 122.01L45.5511 113.402L45.1575 112.237Z" fill="#C1C1C1"/>
<path opacity="0.5" d="M45.9114 114.588L20.1328 123.196L20.5264 124.361L46.305 115.753L45.9114 114.588Z" fill="#C1C1C1"/>
<path opacity="0.5" d="M46.7083 116.925L20.9297 125.533L21.3232 126.698L47.1019 118.09L46.7083 116.925Z" fill="#C1C1C1"/>
<path opacity="0.5" d="M47.5013 119.265L21.7227 127.873L22.1162 129.038L47.8948 120.43L47.5013 119.265Z" fill="#C1C1C1"/>
<path opacity="0.5" d="M40.6897 98.8855L26.2129 103.72L26.4287 104.359L40.9056 99.5244L40.6897 98.8855Z" fill="#C1C1C1"/>
<path opacity="0.5" d="M41.0433 100.005L26.5664 104.839L26.7822 105.478L41.2591 100.644L41.0433 100.005Z" fill="#C1C1C1"/>
<path d="M155.539 44.7953C155.499 44.7953 155.459 44.7953 155.419 44.7953L117.82 32.6649C117.701 32.6253 117.621 32.546 117.581 32.4667C117.541 32.3874 117.541 32.2685 117.541 32.1496L121.847 18.9884C121.887 18.8695 121.967 18.7902 122.047 18.7506C122.086 18.7109 122.166 18.7109 122.246 18.7109C122.286 18.7109 122.326 18.7109 122.366 18.7109L159.965 30.8414C160.164 30.9207 160.284 31.1189 160.204 31.3567L155.898 44.5178C155.858 44.6368 155.778 44.7161 155.698 44.7557C155.659 44.7953 155.619 44.7953 155.539 44.7953Z" fill="white"/>
<path d="M122.248 19.1073L159.847 31.2377L155.541 44.3989L117.942 32.2684L122.248 19.1073ZM122.248 18.3145C121.929 18.3145 121.61 18.5127 121.49 18.8694L117.184 32.0306C117.104 32.2288 117.144 32.4666 117.224 32.6252C117.304 32.8234 117.503 32.9423 117.702 33.0216L155.302 45.152C155.381 45.1917 155.461 45.1917 155.541 45.1917C155.66 45.1917 155.78 45.1521 155.9 45.1124C156.099 45.0331 156.219 44.8349 156.298 44.6367L160.605 31.4756C160.724 31.0395 160.525 30.6035 160.086 30.4845L122.487 18.3541C122.407 18.3145 122.328 18.3145 122.248 18.3145Z" fill="#578ACE"/>
<path d="M155.543 44.7955C155.423 44.7955 155.303 44.7162 155.224 44.6369L141.149 24.8952L118.063 32.6254C118.023 32.6254 117.983 32.665 117.943 32.665C117.824 32.665 117.744 32.6254 117.664 32.5461C117.545 32.4272 117.505 32.2686 117.584 32.1497L125.08 9.15738C125.12 9.03845 125.2 8.95917 125.28 8.91952C125.32 8.87988 125.399 8.87988 125.479 8.87988C125.519 8.87988 125.559 8.87988 125.599 8.87988L163.198 21.0103C163.397 21.0896 163.517 21.2878 163.437 21.5257L155.941 44.518C155.901 44.6766 155.782 44.7558 155.622 44.7955C155.582 44.7955 155.582 44.7955 155.543 44.7955Z" fill="white"/>
<path d="M125.438 9.27624L163.077 21.4067L155.582 44.399L141.307 24.4195L117.942 32.2686L125.438 9.27624ZM125.438 8.4834C125.319 8.4834 125.199 8.52304 125.08 8.56268C124.88 8.64197 124.761 8.84018 124.681 9.03839L117.185 32.0307C117.105 32.3082 117.185 32.6253 117.384 32.8236C117.544 32.9821 117.743 33.0614 117.942 33.0614C118.022 33.0614 118.102 33.0614 118.182 33.0218L140.949 25.3709L154.864 44.8747C155.023 45.0729 155.263 45.1918 155.502 45.1918C155.542 45.1918 155.582 45.1918 155.621 45.1918C155.9 45.1522 156.18 44.954 156.259 44.6369L163.755 21.6445C163.835 21.4463 163.795 21.2085 163.715 21.0499C163.636 20.8517 163.436 20.7328 163.237 20.6535L125.638 8.52304C125.598 8.4834 125.518 8.4834 125.438 8.4834Z" fill="#578ACE"/>
<path d="M143.661 31.833C143.421 31.833 143.182 31.7934 143.023 31.7537L135.407 29.2959C134.889 29.1373 134.291 28.622 134.052 28.1463L125.439 10.1885C125.24 9.79208 125.359 9.51458 125.439 9.39566C125.559 9.19745 125.758 9.11816 125.997 9.11816C126.117 9.11816 126.237 9.1578 126.356 9.19745L162.44 20.8522C162.959 21.0107 163.038 21.3279 163.038 21.4864C163.038 21.6054 163.038 21.9622 162.56 22.2L144.777 31.6348C144.458 31.7537 144.059 31.833 143.661 31.833Z" fill="white"/>
<path d="M125.957 9.47448C126.037 9.47448 126.116 9.47448 126.196 9.51412L162.28 21.1688C162.679 21.2878 162.719 21.5653 162.32 21.8031L144.537 31.2379C144.298 31.3568 143.939 31.4361 143.62 31.4361C143.421 31.4361 143.261 31.3965 143.102 31.3568L135.486 28.899C135.088 28.7801 134.569 28.344 134.37 27.9476L125.758 9.98982C125.638 9.67269 125.718 9.47448 125.957 9.47448ZM125.957 8.68164C125.558 8.68164 125.239 8.84021 125.04 9.15734C124.92 9.35555 124.761 9.75197 125.04 10.3466L133.652 28.3044C133.931 28.899 134.609 29.4937 135.247 29.6919L142.863 32.1497C143.102 32.229 143.341 32.2686 143.62 32.2686C144.099 32.2686 144.577 32.1497 144.936 31.9911L162.719 22.5563C163.397 22.1995 163.437 21.6446 163.397 21.4463C163.357 21.2481 163.237 20.7328 162.519 20.4949L126.435 8.84021C126.276 8.72128 126.116 8.68164 125.957 8.68164Z" fill="#578ACE"/>
<path opacity="0.3" d="M92.5028 128.836C113.356 128.836 130.262 127.079 130.262 124.912C130.262 122.744 113.356 120.987 92.5028 120.987C71.6493 120.987 54.7441 122.744 54.7441 124.912C54.7441 127.079 71.6493 128.836 92.5028 128.836Z" fill="#8CB5C7"/>
<path opacity="0.3" d="M43.3802 84.1602L41.0278 108.302C40.8683 109.927 42.3037 111.236 43.9384 110.958L51.9128 109.452L44.7757 107.589L43.3802 84.1602Z" fill="#8CB5C7"/>
<path d="M109.609 107.588H75.3984V123.286H109.609V107.588Z" fill="white"/>
<path d="M120.056 124.594C120.056 124.951 119.777 125.268 119.378 125.268H65.631C65.2721 125.268 64.9531 124.99 64.9531 124.594V121.978C64.9531 121.621 65.2322 121.304 65.631 121.304H119.378C119.737 121.304 120.056 121.581 120.056 121.978V124.594Z" fill="white"/>
<path d="M141.625 107.865C141.625 108.737 140.908 109.451 140.03 109.451H44.9757C44.0986 109.451 43.3809 108.737 43.3809 107.865V44.9138C43.3809 44.0417 44.0986 43.3281 44.9757 43.3281H140.03C140.908 43.3281 141.625 44.0417 141.625 44.9138V107.865Z" fill="white"/>
<path opacity="0.3" d="M109.608 109.451H75.2383V112.068H109.608V109.451Z" fill="#8CB5C7"/>
<path opacity="0.3" d="M109.608 120.67H75.2383V121.344H109.608V120.67Z" fill="#8CB5C7"/>
<path d="M139.793 45.3105H45.2168V103.663H139.793V45.3105Z" fill="#E8F4FF"/>
<path opacity="0.5" d="M139.833 45.3105H45.2168V46.3809H139.833V45.3105Z" fill="#8BBAD9"/>
<path opacity="0.3" d="M119.417 125.268H65.5903C65.2713 125.268 64.9922 124.991 64.9922 124.673V124.634H120.055V124.673C120.055 124.951 119.776 125.268 119.417 125.268Z" fill="#8CB5C7"/>
<path d="M93.5789 106.518C93.5789 107.112 93.1004 107.588 92.5023 107.588C91.9042 107.588 91.4258 107.112 91.4258 106.518C91.4258 105.923 91.9042 105.447 92.5023 105.447C93.1004 105.447 93.5789 105.923 93.5789 106.518Z" fill="#001733"/>
<path d="M112.16 94.9423L113.555 94.6648V91.8105L112.16 91.4934C112.04 91.0573 111.841 90.6213 111.641 90.2249L112.439 89.0356L110.405 87.0139L109.209 87.7671C108.811 87.5292 108.412 87.3707 107.933 87.2517L107.654 85.8643H104.784L104.465 87.2517C104.026 87.3707 103.587 87.5689 103.189 87.7671L101.992 86.9742L99.959 88.996L100.717 90.1852C100.517 90.5816 100.318 91.0177 100.198 91.4538L98.8027 91.7313V94.5855L100.198 94.9026C100.318 95.3387 100.517 95.7747 100.717 96.1712L99.9192 97.3604L101.953 99.3822L103.149 98.629C103.548 98.8668 103.946 99.0254 104.425 99.1443L104.704 100.532H107.575L107.894 99.1443C108.332 99.0254 108.771 98.8272 109.169 98.629L110.366 99.4218L112.399 97.4001L111.641 96.2108C111.881 95.8144 112.04 95.3783 112.16 94.9423ZM102.232 93.198C102.232 91.0177 104.026 89.2338 106.219 89.2338C108.412 89.2338 110.206 91.0177 110.206 93.198C110.206 95.3783 108.412 97.1622 106.219 97.1622C104.026 97.1622 102.232 95.418 102.232 93.198Z" fill="#0090F8"/>
<path d="M130.779 86.1811L132.813 85.7846V81.6222L130.779 81.1862C130.58 80.5519 130.341 79.9176 130.022 79.3627L131.178 77.658L128.227 74.7245L126.473 75.8345C125.915 75.5174 125.277 75.2795 124.639 75.0813L124.24 73.0596H120.054L119.615 75.0813C118.977 75.2795 118.339 75.5174 117.781 75.8345L116.067 74.6849L113.116 77.6184L114.232 79.3627C113.913 79.9573 113.674 80.5519 113.475 81.1862L111.441 81.5826V85.745L113.475 86.1811C113.674 86.8153 113.913 87.4496 114.232 88.0046L113.076 89.7092L116.027 92.6427L117.781 91.5327C118.339 91.8499 118.977 92.0877 119.615 92.2859L120.014 94.3077H124.2L124.639 92.2859C125.277 92.0877 125.915 91.8499 126.473 91.5327L128.188 92.6823L131.138 89.7488L130.022 88.0046C130.341 87.4496 130.58 86.855 130.779 86.1811ZM116.306 83.6836C116.306 80.5123 118.897 77.8959 122.127 77.8959C125.317 77.8959 127.948 80.4726 127.948 83.6836C127.948 86.855 125.357 89.4713 122.127 89.4713C118.897 89.4713 116.306 86.855 116.306 83.6836Z" fill="#0090F8"/>
<path d="M61.2535 55.0232H51.2057C50.8868 55.0232 50.6077 54.7457 50.6077 54.4285V52.7636C50.6077 52.4464 50.8868 52.1689 51.2057 52.1689H61.2535C61.5724 52.1689 61.8515 52.4464 61.8515 52.7636V54.4285C61.8515 54.7457 61.5724 55.0232 61.2535 55.0232Z" fill="#6A88C1"/>
<path d="M85.5345 55.0232H63.5651C63.2461 55.0232 62.967 54.7457 62.967 54.4285V52.7636C62.967 52.4464 63.2461 52.1689 63.5651 52.1689H85.5345C85.8535 52.1689 86.1326 52.4464 86.1326 52.7636V54.4285C86.1326 54.7457 85.8535 55.0232 85.5345 55.0232Z" fill="#6A88C1"/>
<path d="M78.0008 59.8601H51.2468C50.9278 59.8601 50.6487 59.5826 50.6487 59.2654V57.6005C50.6487 57.2834 50.9278 57.0059 51.2468 57.0059H78.0008C78.3198 57.0059 78.5989 57.2834 78.5989 57.6005V59.2654C78.559 59.6222 78.3198 59.8601 78.0008 59.8601Z" fill="#6A88C1"/>
<path d="M89.961 59.8591H80.2722C79.9532 59.8591 79.6741 59.5816 79.6741 59.2645V57.5995C79.6741 57.2824 79.9532 57.0049 80.2722 57.0049H89.961C90.28 57.0049 90.5591 57.2824 90.5591 57.5995V59.2645C90.5591 59.6213 90.28 59.8591 89.961 59.8591Z" fill="#6A88C1"/>
<path d="M68.7893 64.7351H51.2057C50.8868 64.7351 50.6077 64.4576 50.6077 64.1404V62.4755C50.6077 62.1584 50.8868 61.8809 51.2057 61.8809H68.7893C69.1082 61.8809 69.3873 62.1584 69.3873 62.4755V64.1404C69.3475 64.4576 69.1082 64.7351 68.7893 64.7351Z" fill="#6A88C1"/>
<path d="M84.9776 64.7351H71.1022C70.7833 64.7351 70.5042 64.4576 70.5042 64.1404V62.4755C70.5042 62.1584 70.7833 61.8809 71.1022 61.8809H84.9776C85.2966 61.8809 85.5757 62.1584 85.5757 62.4755V64.1404C85.5757 64.4576 85.2966 64.7351 84.9776 64.7351Z" fill="#6A88C1"/>
<path d="M73.6548 69.572H51.2468C50.9278 69.572 50.6487 69.2945 50.6487 68.9774V67.3124C50.6487 66.9953 50.9278 66.7178 51.2468 66.7178H73.6548C73.9738 66.7178 74.2529 66.9953 74.2529 67.3124V68.9774C74.213 69.3341 73.9738 69.572 73.6548 69.572Z" fill="#6A88C1"/>
<path d="M87.0905 69.572H75.9263C75.6074 69.572 75.3282 69.2945 75.3282 68.9774V67.3124C75.3282 66.9953 75.6074 66.7178 75.9263 66.7178H87.0905C87.4094 66.7178 87.6885 66.9953 87.6885 67.3124V68.9774C87.6885 69.3341 87.4094 69.572 87.0905 69.572Z" fill="#6A88C1"/>
<path d="M68.1912 74.448H51.2057C50.8868 74.448 50.6077 74.1705 50.6077 73.8533V72.1884C50.6077 71.8712 50.8868 71.5938 51.2057 71.5938H68.1912C68.5101 71.5938 68.7893 71.8712 68.7893 72.1884V73.8533C68.7893 74.1705 68.5101 74.448 68.1912 74.448Z" fill="#6A88C1"/>
<path d="M84.9761 74.448H70.5026C70.1836 74.448 69.9045 74.1705 69.9045 73.8533V72.1884C69.9045 71.8712 70.1836 71.5938 70.5026 71.5938H84.9761C85.2951 71.5938 85.5742 71.8712 85.5742 72.1884V73.8533C85.5742 74.1705 85.2951 74.448 84.9761 74.448Z" fill="#6A88C1"/>
<path d="M79.3553 79.2839H51.2057C50.8868 79.2839 50.6077 79.0064 50.6077 78.6893V77.0243C50.6077 76.7072 50.8868 76.4297 51.2057 76.4297H79.3553C79.6743 76.4297 79.9534 76.7072 79.9534 77.0243V78.6893C79.9534 79.0461 79.6743 79.2839 79.3553 79.2839Z" fill="#6A88C1"/>
<path d="M87.0893 79.2839H81.6667C81.3477 79.2839 81.0686 79.0064 81.0686 78.6893V77.0243C81.0686 76.7072 81.3477 76.4297 81.6667 76.4297H87.0893C87.4082 76.4297 87.6873 76.7072 87.6873 77.0243V78.6893C87.6873 79.0461 87.4082 79.2839 87.0893 79.2839Z" fill="#6A88C1"/>
<path d="M66.5963 84.1599H51.2057C50.8868 84.1599 50.6077 83.8824 50.6077 83.5652V81.9003C50.6077 81.5832 50.8868 81.3057 51.2057 81.3057H66.5963C66.9153 81.3057 67.1944 81.5832 67.1944 81.9003V83.5652C67.1944 83.922 66.9153 84.1599 66.5963 84.1599Z" fill="#6A88C1"/>
<path d="M49.5215 100.651H88.3169C88.9548 100.651 89.4732 100.136 89.4732 99.5014V90.0666C89.4732 89.4323 88.9548 88.917 88.3169 88.917H49.5215C48.8836 88.917 48.3652 89.4323 48.3652 90.0666V99.5014C48.3652 100.136 48.8836 100.651 49.5215 100.651Z" fill="#FFAB00"/>
<path d="M56.4201 98.4708H50.6387C50.6387 96.8851 51.9146 95.6166 53.5094 95.6166C55.1442 95.5769 56.4201 96.8851 56.4201 98.4708ZM53.5493 91.8506C52.6721 91.8506 51.9544 92.5641 51.9544 93.4363C51.9544 94.3084 52.6721 95.0219 53.5493 95.0219C54.4265 95.0219 55.1442 94.3084 55.1442 93.4363C55.1442 92.5641 54.4265 91.8506 53.5493 91.8506Z" fill="#001733"/>
<path d="M71.0931 93.4761H61.5239C61.2049 93.4761 60.9258 93.1986 60.9258 92.8815V92.5644C60.9258 92.2472 61.2049 91.9697 61.5239 91.9697H71.0931C71.4121 91.9697 71.6912 92.2472 71.6912 92.5644V92.8815C71.6513 93.1986 71.4121 93.4761 71.0931 93.4761Z" fill="#001733"/>
<path d="M76.9934 95.2995H61.4034C61.1642 95.2995 60.9648 95.1012 60.9648 94.8634V94.8238C60.9648 94.5859 61.1642 94.3877 61.4034 94.3877H77.0332C77.2725 94.3877 77.4718 94.5859 77.4718 94.8238V94.8634C77.4319 95.1012 77.2326 95.2995 76.9934 95.2995Z" fill="#001733"/>
<path d="M70.2949 96.7663H61.4034C61.1642 96.7663 60.9648 96.5681 60.9648 96.3302V96.2906C60.9648 96.0527 61.1642 95.8545 61.4034 95.8545H70.2949C70.5341 95.8545 70.7335 96.0527 70.7335 96.2906V96.3302C70.7335 96.5681 70.5341 96.7663 70.2949 96.7663Z" fill="#001733"/>
<path d="M80.623 96.7663H71.7316C71.4923 96.7663 71.293 96.5681 71.293 96.3302V96.2906C71.293 96.0527 71.4923 95.8545 71.7316 95.8545H80.623C80.8622 95.8545 81.0616 96.0527 81.0616 96.2906V96.3302C81.0616 96.5681 80.8622 96.7663 80.623 96.7663Z" fill="#001733"/>
<path d="M76.9934 98.233H61.4034C61.1642 98.233 60.9648 98.0348 60.9648 97.797V97.7574C60.9648 97.5195 61.1642 97.3213 61.4034 97.3213H77.0332C77.2725 97.3213 77.4718 97.5195 77.4718 97.7574V97.797C77.4319 98.0348 77.2326 98.233 76.9934 98.233Z" fill="#001733"/>
<path d="M84.0101 93.4761H73.0453C72.7264 93.4761 72.4473 93.1986 72.4473 92.8815V92.5644C72.4473 92.2472 72.7264 91.9697 73.0453 91.9697H84.0101C84.3291 91.9697 84.6082 92.2472 84.6082 92.5644V92.8815C84.5683 93.1986 84.3291 93.4761 84.0101 93.4761Z" fill="#001733"/>
<path opacity="0.2" d="M139.789 45.3105H45.2129V49.2747H139.789V45.3105Z" fill="white"/>
<path d="M137.758 47.2931C137.758 47.6895 137.439 47.967 137.08 47.967C136.681 47.967 136.402 47.6498 136.402 47.2931C136.402 46.8966 136.721 46.6191 137.08 46.6191C137.479 46.6191 137.758 46.8966 137.758 47.2931Z" fill="white"/>
<path d="M135.006 47.967C135.38 47.967 135.684 47.6652 135.684 47.2931C135.684 46.9209 135.38 46.6191 135.006 46.6191C134.632 46.6191 134.328 46.9209 134.328 47.2931C134.328 47.6652 134.632 47.967 135.006 47.967Z" fill="white"/>
<path d="M132.895 47.967C133.269 47.967 133.572 47.6652 133.572 47.2931C133.572 46.9209 133.269 46.6191 132.895 46.6191C132.52 46.6191 132.217 46.9209 132.217 47.2931C132.217 47.6652 132.52 47.967 132.895 47.967Z" fill="white"/>
<path d="M165.109 80.1163C156.656 78.8081 148.761 84.5562 147.405 92.9206C146.608 97.9551 148.362 102.831 151.751 106.161L151.153 113.614L156.975 109.61C158.011 110.046 159.168 110.323 160.324 110.522C168.777 111.83 176.671 106.082 178.027 97.7173C179.303 89.3132 173.561 81.4244 165.109 80.1163Z" fill="white"/>
<path d="M152.25 106.201L152.269 105.968L152.102 105.804C148.825 102.585 147.128 97.8697 147.899 92.9997C149.211 84.908 156.85 79.3441 165.032 80.6104C173.21 81.8761 178.766 89.5078 177.533 97.6398C176.221 105.729 168.584 111.292 160.404 110.028C159.268 109.833 158.155 109.564 157.169 109.149L156.917 109.043L156.691 109.198L151.736 112.606L152.25 106.201Z" stroke="#578ACE"/>
<path d="M168.02 89.709C168.299 89.7487 168.578 89.7883 168.858 89.8676C170.692 90.3037 172.566 92.0876 172.406 94.9418L172.247 95.8535C171.569 98.4699 168.738 101.403 161.282 104.495C155.102 99.3024 153.307 95.6553 153.507 92.92L153.666 92.0083C154.384 89.273 156.736 88.1234 158.571 88.2819C158.89 88.3216 159.169 88.3216 159.408 88.3612C161.521 88.6783 162.438 89.6298 163.395 91.0172C164.751 89.9865 165.867 89.3523 168.02 89.709Z" fill="#FF6716"/>
<path d="M110.523 52.8828L111.32 55.0631L113.673 55.1424L111.799 56.5695L112.477 58.7895L110.523 57.4813L108.609 58.7895L109.247 56.5695L107.373 55.1424L109.725 55.0631L110.523 52.8828Z" fill="#FFAB00"/>
<path d="M103.119 52.8828L103.916 55.0631L106.269 55.1424L104.395 56.5695L105.072 58.7895L103.119 57.4813L101.205 58.7895L101.843 56.5695L99.9688 55.1424L102.321 55.0631L103.119 52.8828Z" fill="#FFAB00"/>
<path d="M117.981 52.8828L118.779 55.0631L121.131 55.1424L119.297 56.5695L119.935 58.7895L117.981 57.4813L116.067 58.7895L116.705 56.5695L114.871 55.1424L117.224 55.0631L117.981 52.8828Z" fill="#FFAB00"/>
<path d="M125.476 52.8828L126.273 55.0631L128.586 55.1424L126.752 56.5695L127.39 58.7895L125.476 57.4813L123.522 58.7895L124.16 56.5695L122.326 55.1424L124.678 55.0631L125.476 52.8828Z" fill="#FFAB00"/>
<path d="M132.931 52.8828L133.729 55.0631L136.081 55.1424L134.207 56.5695L134.885 58.7895L132.931 57.4813L130.977 58.7895L131.655 56.5695L129.781 55.1424L132.134 55.0631L132.931 52.8828Z" fill="#FFAB00"/>
</svg>
