<svg width="64" height="27" viewBox="0 0 64 27" fill="none" xmlns="http://www.w3.org/2000/svg">
<path d="M13.8384 26.4056C11.2227 26.4056 8.86851 25.8587 6.77591 24.7648C4.70709 23.6472 3.07819 22.1015 1.88921 20.1278C0.700237 18.1541 0.105748 15.9188 0.105748 13.422C0.105748 10.9251 0.700237 8.68987 1.88921 6.71616C3.07819 4.74246 4.70709 3.20868 6.77591 2.11482C8.86851 0.997187 11.2227 0.438368 13.8384 0.438368C16.1213 0.438368 18.1782 0.842621 20.0092 1.65113C21.8402 2.45963 23.3621 3.62483 24.5749 5.14672L20.0806 9.21302C18.4635 7.2631 16.5017 6.28813 14.1951 6.28813C12.8397 6.28813 11.6269 6.58538 10.5569 7.17987C9.51055 7.77436 8.69016 8.61853 8.09567 9.71239C7.52496 10.7825 7.23961 12.019 7.23961 13.422C7.23961 14.825 7.52496 16.0734 8.09567 17.1673C8.69016 18.2374 9.51055 19.0696 10.5569 19.6641C11.6269 20.2586 12.8397 20.5559 14.1951 20.5559C16.5017 20.5559 18.4635 19.5809 20.0806 17.631L24.5749 21.6973C23.3621 23.2192 21.8402 24.3844 20.0092 25.1929C18.1782 26.0014 16.1213 26.4056 13.8384 26.4056ZM28.3071 13.1366H38.7225V18.3444H28.3071V13.1366ZM52.7653 10.0334C56.2609 10.0334 58.841 10.7468 60.5056 12.1736C62.1939 13.6003 63.0381 15.5027 63.0381 17.8807C63.0381 19.4263 62.6338 20.8531 61.8253 22.161C61.0406 23.4451 59.8279 24.4795 58.1871 25.2642C56.5701 26.0251 54.5607 26.4056 52.159 26.4056C50.3993 26.4056 48.6515 26.1916 46.9156 25.7636C45.2034 25.3355 43.7291 24.7292 42.4926 23.9444L45.0251 18.6297C46.0238 19.2955 47.1177 19.8068 48.3067 20.1635C49.5194 20.5202 50.7322 20.6985 51.9449 20.6985C53.1577 20.6985 54.1208 20.4726 54.8342 20.0208C55.5713 19.5452 55.9399 18.8913 55.9399 18.059C55.9399 17.2267 55.5832 16.5966 54.8698 16.1685C54.1564 15.7405 52.8961 15.5265 51.0889 15.5265H44.3117L45.5601 0.937738H61.4686V6.39514H51.4099L51.0889 10.0334H52.7653Z" fill="white"/>
</svg>
