<svg width="59" height="30" viewBox="0 0 59 30" fill="none" xmlns="http://www.w3.org/2000/svg">
<path d="M22.7791 2.09375C22.7791 1.81761 22.5552 1.59375 22.2791 1.59375H1C0.723858 1.59375 0.5 1.81761 0.5 2.09375V3.81886V5.89074C0.5 6.16688 0.723858 6.39074 1 6.39074H7.28733V20.1944C7.28733 22.3525 7.6571 24.101 8.45702 25.3865C9.23943 26.6465 10.3074 27.536 11.6488 28.0359C12.9449 28.5189 14.372 28.7565 15.9287 28.7565C16.9484 28.7565 17.9228 28.6673 18.8467 28.492C19.7543 28.3199 20.4985 28.1167 21.0556 27.8802C21.2403 27.8018 21.3602 27.6206 21.3602 27.42V23.9004C21.3602 23.7409 21.2841 23.591 21.1553 23.4968C21.0266 23.4027 20.8606 23.3756 20.7086 23.4239C20.1964 23.5869 19.584 23.7205 18.8666 23.8262L18.8637 23.8266C18.1549 23.9352 17.4449 23.9856 16.7419 23.9856C15.5507 23.9856 14.6517 23.6622 13.9987 23.0671C13.3853 22.508 13.0112 21.4972 13.0112 19.8954V6.39074H22.2791C22.5552 6.39074 22.7791 6.16688 22.7791 5.89074V2.09375Z" fill="#3090F6" stroke="#3090F6" stroke-linejoin="round"/>
<path d="M43.649 10.1522C43.429 10.5802 43.169 11.0282 42.873 11.4922L38.625 18.2402H44.205V14.1082C44.205 13.7202 44.213 13.2602 44.229 12.7242C44.245 12.1922 44.265 11.6562 44.285 11.1242C44.305 10.5922 44.329 10.1162 44.357 9.70022C44.385 9.28422 44.401 8.99222 44.413 8.82422H44.285C44.085 9.28422 43.873 9.72422 43.649 10.1522Z" fill="#3090F6"/>
<path d="M57.007 0H29.407C28.743 0 28.207 0.536 28.207 1.2V28.8C28.207 29.464 28.743 30 29.407 30H57.007C57.671 30 58.207 29.464 58.207 28.8V1.2C58.207 0.536 57.671 0 57.007 0ZM51.783 22.24H48.991V27.288H44.203V22.24H34.311V18.656L44.471 2.928H48.991V18.24H51.783V22.24Z" fill="#3090F6"/>
</svg>
